PathFileType	4	(X/Y/Z)	 s05c0102.trc
DataRate	CameraRate	NumFrames	NumMarkers	Units	OrigDataRate	OrigDataStartFrame	OrigNumFrames
200	200	5	50	mm	200	1251	2000
Frame#	Time	racr			lacr			c7			jug			rlel			rdr			llel			ldr			s2			lic			ric			lasi			rasi			rpsi			lpsi			rgt			lgt			rth1			rth2			rth3			rth4			rlfc			rmfc			rsh1			rsh2			rsh3			rsh4			rlmal			rmmal			rcal			rtoe			rmt5			lth1			lth2			lth4			lth3			llfc			lmfc			lsh1			lsh2			lsh3			lsh4			llmal			lmmal			lcal			ltoe			lmt5			SBIKE			LBIKE			RBIKE			
		X1	Y1	Z1	X2	Y2	Z2	X3	Y3	Z3	X4	Y4	Z4	X5	Y5	Z5	X6	Y6	Z6	X7	Y7	Z7	X8	Y8	Z8	X9	Y9	Z9	X10	Y10	Z10	X11	Y11	Z11	X12	Y12	Z12	X13	Y13	Z13	X14	Y14	Z14	X15	Y15	Z15	X16	Y16	Z16	X17	Y17	Z17	X18	Y18	Z18	X19	Y19	Z19	X20	Y20	Z20	X21	Y21	Z21	X22	Y22	Z22	X23	Y23	Z23	X24	Y24	Z24	X25	Y25	Z25	X26	Y26	Z26	X27	Y27	Z27	X28	Y28	Z28	X29	Y29	Z29	X30	Y30	Z30	X31	Y31	Z31	X32	Y32	Z32	X33	Y33	Z33	X34	Y34	Z34	X35	Y35	Z35	X36	Y36	Z36	X37	Y37	Z37	X38	Y38	Z38	X39	Y39	Z39	X40	Y40	Z40	X41	Y41	Z41	X42	Y42	Z42	X43	Y43	Z43	X44	Y44	Z44	X45	Y45	Z45	X46	Y46	Z46	X47	Y47	Z47	X48	Y48	Z48	X49	Y49	Z49	X50	Y50	Z50	
1251	6.2550	477.654503	1266.474786	-150.794104	481.382928	1276.532700	-399.258852	469.192078	1336.535773	-277.335033	399.854274	1192.519132	-276.494741	501.557186	1051.637788	22.878330	691.174994	921.427867	-63.695733	473.280841	1043.417185	-569.569888	683.177100	932.389930	-458.444622	-104.624393	1175.248070	-285.184495	43.212802	1183.560493	-427.531962	33.298352	1201.696338	-142.531304	90.351631	1129.583026	-389.433163	82.763846	1144.908773	-168.186639	-74.268185	1224.393455	-248.367988	-66.597510	1222.884272	-333.307830	8.353761	1089.628482	-107.704562	-23.721690	1071.791644	-445.982000	112.515670	1042.980757	-96.898467	201.348151	1030.885177	-94.539834	270.198006	974.265802	-92.722468	214.576567	1061.100847	-111.518219	391.782809	888.532278	-116.362094	378.612421	877.200925	-226.919781	303.622065	826.542412	-89.219217	259.268762	750.633202	-98.343760	186.045094	705.560952	-100.917103	282.290712	730.273524	-121.336623	98.359592	604.838002	-104.839145	125.655276	618.912042	-184.058658	28.241360	632.603259	-149.919219	202.713474	392.913029	-153.572022	122.385891	455.005357	-86.280365	58.497362	946.940311	-462.994125	126.553128	894.652557	-458.214215	156.097462	915.346269	-446.842087	159.014527	810.153781	-453.146656	233.372521	687.892230	-418.552143	213.491624	672.871858	-314.682352	200.521701	565.819511	-450.318195	214.258940	480.312195	-439.156854	183.346808	397.121531	-441.254420	243.714764	479.954115	-414.559488	180.779457	277.107309	-435.617052	203.966358	311.797913	-363.599756	120.890841	235.226555	-395.627794	415.556721	220.372045	-390.661604	310.340235	192.727517	-457.771353	-214.266155	914.135729	-269.748067	-43.480798	84.728574	-475.187235	-51.788684	80.164443	-77.646637	
1252	6.2600	477.613356	1267.373091	-150.476107	481.946101	1277.103179	-398.680605	469.453724	1337.040973	-277.019737	400.219194	1192.983430	-276.020911	501.564026	1052.336546	22.501277	691.180583	922.107758	-63.893402	475.310416	1044.425848	-569.630716	684.380585	931.732016	-458.506770	-103.696098	1176.451032	-287.334047	44.504709	1183.844128	-428.348367	32.805395	1203.484717	-142.923190	91.195859	1129.644033	-389.771784	82.619633	1146.842511	-168.900021	-74.057044	1225.538941	-250.191303	-65.728606	1223.636883	-335.065726	8.267459	1093.269471	-108.250592	-23.497057	1072.089252	-446.379408	112.585304	1047.976996	-97.209796	201.612748	1037.273890	-95.322288	271.306729	981.997340	-92.873510	214.274203	1067.526340	-112.891481	395.306903	897.716193	-118.110945	382.515827	886.049742	-228.346810	307.169981	834.958355	-90.060795	263.274251	758.788717	-98.950560	190.369675	713.254833	-101.321970	286.409739	738.482666	-121.954737	103.363895	611.811621	-105.220097	130.085421	626.451006	-184.834677	32.476710	638.251559	-150.212648	213.408288	403.315197	-152.035236	130.763107	462.812756	-86.196505	55.695595	946.255847	-463.793407	122.513350	892.248519	-459.287256	152.551290	912.198980	-448.338968	152.775383	807.056278	-454.326656	225.434147	683.927949	-419.902488	205.497407	669.037166	-315.508397	192.727795	561.784831	-451.731644	206.607079	476.256302	-440.482587	175.883893	393.034996	-442.769301	235.991324	476.021006	-415.805567	173.854377	273.056149	-436.688057	196.345346	306.626886	-364.489122	113.554790	232.087233	-396.933642	407.892831	212.139457	-390.208669	302.712423	186.196765	-457.998248	-214.222292	914.158882	-269.847266	-43.479090	84.755397	-475.193659	-51.787958	80.224164	-77.645752	
1253	6.2650	477.570030	1268.218740	-150.037030	482.313050	1277.460396	-398.062953	469.687344	1337.645593	-276.729795	400.324786	1193.658787	-275.549531	501.546687	1053.059066	22.089280	691.163347	922.847593	-64.058956	477.346385	1045.420583	-569.844314	685.635877	931.077860	-458.625092	-103.188712	1177.496481	-288.783835	45.701403	1184.184316	-429.081187	31.970593	1205.021932	-144.351168	91.865708	1129.814702	-390.099696	82.367828	1148.754749	-169.466945	-73.732656	1227.027589	-251.915802	-65.261983	1224.942096	-336.776287	8.085738	1096.652934	-108.675136	-23.546442	1072.631820	-446.675360	112.598896	1052.651618	-97.524075	201.737139	1043.415602	-96.214782	271.802190	989.819418	-92.809510	213.804537	1073.629989	-114.335171	397.936586	906.562978	-119.003981	385.119801	894.543822	-228.898989	310.633113	843.208158	-91.063515	267.311552	766.501164	-99.745541	194.859096	720.259121	-101.980939	290.550421	746.576087	-122.735580	108.602689	618.080075	-105.737609	134.890425	633.078718	-185.312704	37.037301	643.172582	-150.556240	223.258026	412.358048	-152.152581	139.003095	469.848698	-86.164336	52.945983	946.236039	-464.546770	118.563774	890.713203	-460.661853	149.021830	910.095025	-449.811750	146.898886	804.942447	-455.571298	217.718920	680.545385	-421.294853	197.484983	665.755232	-316.669043	185.149696	558.373983	-453.088281	199.029438	472.936059	-441.763653	168.398733	389.567065	-444.144855	228.336536	472.597064	-416.969518	166.786785	269.542649	-437.633735	188.547825	302.058983	-365.256019	106.020508	229.597120	-398.035703	399.872821	204.356837	-389.978766	294.563977	180.187088	-458.245165	-214.572782	914.263490	-269.395366	-43.490156	84.789659	-475.216733	-51.797147	80.224779	-77.655779	
1254	6.2700	477.500728	1269.141395	-149.654724	482.630240	1277.682027	-397.427439	469.857050	1338.092784	-276.493984	400.463310	1194.132369	-274.934841	501.474020	1053.734601	21.751213	691.071890	923.639134	-64.234155	479.311451	1046.304091	-570.096762	686.779312	930.642600	-458.747088	-103.471736	1178.657086	-289.646092	46.535416	1184.531836	-429.621847	31.330204	1206.617376	-145.242903	92.366696	1130.071330	-390.340630	81.960418	1150.417059	-170.054969	-73.946371	1228.098301	-252.657250	-64.614381	1225.737004	-337.424562	7.733089	1099.832434	-109.104315	-23.805438	1073.382920	-446.892870	112.633251	1057.068117	-97.966875	201.782745	1049.237422	-97.240409	272.702463	996.859256	-93.555955	213.211029	1079.298672	-115.959425	400.283329	915.347024	-120.123306	387.484610	902.782107	-229.759363	313.953140	851.067809	-92.245635	271.372903	773.947936	-100.751779	199.338887	727.073221	-102.608564	294.728807	754.347170	-123.650971	114.118072	623.701620	-106.253669	140.505160	639.154320	-185.788201	42.175804	647.250611	-150.506030	232.609479	419.979191	-152.677077	147.159874	476.115079	-86.251058	50.348376	946.940074	-465.266418	114.920157	890.162061	-461.957856	145.753544	908.828038	-451.022933	141.603611	803.766425	-457.020842	210.520312	677.772590	-422.638550	189.760459	662.913175	-318.412066	177.730309	555.655761	-454.342431	191.503258	470.143401	-442.937968	160.887120	386.849001	-445.412949	220.816564	469.872502	-418.074614	159.356060	266.726819	-438.489750	180.648335	298.131551	-365.888764	98.215527	227.827879	-398.838643	391.469048	197.155743	-389.915082	286.000732	174.737439	-458.519841	-214.578859	914.261711	-269.421218	-43.502939	84.812604	-475.211076	-51.780206	80.245746	-77.660565	
1255	6.2750	477.459297	1269.912083	-149.150170	483.139444	1277.767932	-396.840092	469.979533	1338.441797	-276.204964	400.883723	1194.349458	-274.345772	501.275000	1054.482272	21.635687	690.923329	924.464399	-64.472410	481.381965	1047.266042	-570.423870	687.723823	930.308058	-458.856065	-103.718324	1179.670662	-290.424718	47.255593	1184.930772	-430.101659	30.656692	1208.034611	-146.233442	92.687375	1130.393941	-390.581432	81.366310	1152.021817	-170.546138	-73.953651	1229.407874	-253.757189	-64.229211	1226.706298	-338.474669	7.296736	1102.630494	-109.437598	-24.196431	1074.309441	-447.023999	112.491163	1061.154312	-98.686471	201.717429	1054.651758	-98.448247	273.318068	1003.404518	-94.666660	212.602128	1084.666206	-117.557751	402.294731	924.065364	-120.914355	389.630725	911.107353	-231.051533	317.129186	858.596586	-93.658134	274.995251	780.917120	-102.414866	204.018581	733.159899	-103.575059	298.998377	761.518120	-124.720620	119.945387	628.557691	-106.779656	146.040773	644.453320	-186.255739	47.247885	650.337705	-151.269661	242.533821	427.326724	-152.463750	156.128631	481.920208	-86.286713	48.152186	948.213617	-465.813452	111.780751	890.370331	-463.041150	142.876143	908.498301	-452.049994	137.065761	803.531563	-458.624313	203.733253	675.601868	-423.988099	183.127606	660.733757	-319.360000	170.377318	553.472746	-455.274273	184.084127	468.012975	-443.976935	153.203998	384.736249	-446.290098	213.528441	467.640382	-419.299057	151.832671	264.452153	-439.228290	172.721421	294.881936	-366.375675	90.290269	226.801075	-399.282217	382.811957	190.500006	-390.044178	277.093745	169.765517	-458.694521	-214.569404	914.260651	-269.519976	-43.525499	84.829595	-475.228282	-51.813028	80.250840	-77.675776	
